# xmcd
#
# Track frame offsets: 
#        150
#        24178
#        33596
#        46346
#        65970
#        99063
#
# Disc length: 1585 seconds
#
# Revision: 0
# Processed by: cddbd v1.5.2PL0 Copyright (c) Steve Scherf et al.
# Submitted via: ExactAudioCopyFreeDBPlugin 1.0
#
DISCID=44062f06
DTITLE=minamitetsu - 詩人 on the road (rec 120906 ex)
DYEAR=2013
DGENRE=Rock
TTITLE0=gozira
TTITLE1=rap
TTITLE2=ai
TTITLE3=mizu
TTITLE4=prayer for education
TTITLE5=akegata
EXTD=
EXTT0=
EXTT1=
EXTT2=
EXTT3=
EXTT4=
EXTT5=
PLAYORDER=
